<?xml version="1.0" standalone="no"?>
<!DOCTYPE svg PUBLIC "-//W3C//DTD SVG 20010904//EN"
 "http://www.w3.org/TR/2001/REC-SVG-20010904/DTD/svg10.dtd">
<svg version="1.0" xmlns="http://www.w3.org/2000/svg"
 width="85.000000pt" height="87.000000pt" viewBox="0 0 85.000000 87.000000"
 preserveAspectRatio="xMidYMid meet">

<g transform="translate(0.000000,87.000000) scale(0.100000,-0.100000)"
fill="#000000" stroke="none">
<path d="M110 492 l0 -379 23 -21 c21 -20 34 -22 135 -22 99 0 114 -2 132 -20
20 -20 20 -20 40 0 18 18 33 20 134 20 169 0 156 -36 156 426 l0 374 -310 0
-310 0 0 -378z m600 279 l0 -68 -92 -7 c-106 -8 -431 -7 -465 1 -21 5 -23 11
-23 74 l0 69 290 0 290 0 0 -69z m-341 -170 c-1 -25 -3 -29 -6 -13 -7 35 -46
49 -77 28 -36 -23 -24 -43 48 -77 l61 -29 3 52 c2 34 -1 54 -10 59 -7 5 21 8
67 8 44 0 74 -3 68 -6 -14 -5 -18 -163 -7 -247 5 -37 11 -46 26 -46 30 0 78
54 78 87 0 15 5 35 10 43 7 10 10 -9 10 -62 l0 -78 -60 0 c-57 0 -61 -2 -71
-27 -32 -86 -142 -128 -232 -89 -52 22 -70 50 -75 115 -4 49 -1 61 19 85 46
53 145 43 169 -17 7 -18 9 -14 9 21 l1 42 -72 35 c-81 40 -88 47 -88 92 0 42
31 64 87 61 43 -1 43 -2 42 -37z"/>
<path d="M370 800 c0 -5 7 -10 15 -10 8 0 15 5 15 10 0 6 -7 10 -15 10 -8 0
-15 -4 -15 -10z"/>
<path d="M440 800 c0 -5 5 -10 10 -10 6 0 10 5 10 10 0 6 -4 10 -10 10 -5 0
-10 -4 -10 -10z"/>
<path d="M406 753 c-11 -11 -6 -23 9 -23 8 0 15 4 15 9 0 13 -16 22 -24 14z"/>
<path d="M476 753 c-11 -11 -6 -23 9 -23 8 0 15 4 15 9 0 13 -16 22 -24 14z"/>
<path d="M335 740 c3 -5 10 -10 16 -10 5 0 9 5 9 10 0 6 -7 10 -16 10 -8 0
-12 -4 -9 -10z"/>
<path d="M453 550 c0 -41 2 -58 4 -37 2 20 2 54 0 75 -2 20 -4 3 -4 -38z"/>
<path d="M245 395 c-19 -18 -25 -35 -25 -67 0 -74 50 -118 132 -118 50 0 82
19 103 60 20 38 19 50 -2 50 -14 0 -15 2 -5 9 10 6 7 10 -12 13 -26 5 -46 -7
-46 -29 0 -21 -47 -46 -75 -39 -30 8 -58 47 -49 70 9 23 27 20 19 -3 -7 -22
18 -51 45 -51 22 0 50 36 50 63 0 29 -45 67 -80 67 -19 0 -40 -9 -55 -25z"/>
<path d="M452 385 c0 -16 2 -22 5 -12 2 9 2 23 0 30 -3 6 -5 -1 -5 -18z"/>
</g>
</svg>
